# xmcd CD database file
#
# Track frame offsets:
#	150
#	26825
#	76220
#	99117
#	131087
#	162462
#
# Disc length: 2555 seconds
#
# Revision: 0
# Processed by: cddbd v1.5.1PL0 Copyright (c) Steve Scherf et al.
# Submitted via: CDex 1.51
#
DISCID=4209f906
DTITLE=Horace Parlan - Horace Parlan On The Spur Of The Moment
DYEAR=1955
DGENRE=Jazz
TTITLE0=On The Spur Of The Moment
TTITLE1=Skoo Chee
TTITLE2=And That I Am So In Love
TTITLE3=Al's Tune
TTITLE4=Ray C.
TTITLE5=Pyramid
EXTD=YEAR: 1955
EXTT0=
EXTT1=
EXTT2=
EXTT3=
EXTT4=
EXTT5=
PLAYORDER=
